<svg width="500" height="500" viewBox="0 0 500 500" fill="none" xmlns="http://www.w3.org/2000/svg">
<rect width="500" height="500" rx="100" fill="white"/>
<path d="M65.7712 317.77C65.8868 317.077 67.5332 316.211 70.7106 315.171C73.8879 314.131 77.8452 312.889 82.5823 311.444C87.3195 310 92.5765 308.325 98.3536 306.418C104.131 304.512 109.705 302.346 115.078 299.919C120.451 297.493 125.274 294.807 129.549 291.86C133.824 288.914 136.944 285.65 138.908 282.068C138.908 280.22 137.637 278.776 135.095 277.736C132.553 276.696 129.203 275.829 125.043 275.136C120.884 274.443 116.147 273.865 110.832 273.403C105.517 272.941 100.058 272.305 94.4541 271.496C88.8504 270.688 83.3911 269.648 78.0762 268.377C72.7614 267.106 68.0243 265.344 63.8648 263.091C59.7054 260.838 56.3547 258.007 53.8128 254.599C51.2709 251.19 50 246.944 50 241.86C50 236.892 51.1265 231.837 53.3796 226.696C55.6326 221.554 58.6077 216.557 62.305 211.704C66.0023 206.852 70.2484 202.288 75.0433 198.013C79.8382 193.738 84.8354 189.983 90.0347 186.748C95.234 183.513 100.375 180.971 105.459 179.122C110.543 177.274 115.28 176.349 119.671 176.349C120.826 176.349 122.039 176.32 123.31 176.263C124.581 176.205 125.708 176.291 126.69 176.523C127.672 176.754 128.481 177.245 129.116 177.996C129.752 178.747 130.069 179.873 130.069 181.375C130.069 185.072 128.856 187.73 126.43 189.347C124.003 190.965 121.057 191.774 117.591 191.774L110.139 189.347C107.25 189.347 103.986 190.185 100.347 191.86C96.7071 193.536 93.0387 195.789 89.3414 198.62C85.6441 201.45 82.0335 204.685 78.5095 208.325C74.9856 211.964 71.866 215.72 69.1508 219.59C66.4356 223.461 64.2403 227.331 62.565 231.202C60.8897 235.072 60.052 238.568 60.052 241.687C60.052 245.616 61.3229 248.822 63.8648 251.306C66.4067 253.79 69.7574 255.783 73.9168 257.285C78.0763 258.787 82.8423 259.914 88.2149 260.665C93.5875 261.416 99.0468 262.08 104.593 262.658C110.139 263.235 115.598 263.871 120.971 264.564C126.343 265.257 131.109 266.211 135.269 267.424C139.428 268.637 142.779 270.312 145.321 272.45C147.862 274.587 149.133 277.447 149.133 281.029C149.133 284.495 147.747 287.961 144.974 291.427C142.201 294.893 138.561 298.215 134.055 301.393C129.549 304.57 124.379 307.516 118.544 310.231C112.709 312.947 106.846 315.257 100.953 317.164C95.0606 319.07 89.3125 320.543 83.7088 321.583C78.1051 322.623 73.2813 323.085 69.2374 322.97C68.082 322.97 67.0999 322.565 66.2911 321.757C65.4824 320.948 65.3091 319.619 65.7712 317.77Z" fill="#1D1A0F"/>
<path d="M156.759 279.122C156.644 264.564 158.146 251.306 161.265 239.347C164.385 227.389 168.486 216.962 173.57 208.065C178.654 199.168 184.344 191.976 190.641 186.488C196.938 181 203.206 177.505 209.445 176.003C215.685 174.501 221.577 175.078 227.123 177.736C232.669 180.393 237.175 185.419 240.641 192.814C243.761 199.399 245.898 207.054 247.054 215.777C248.209 224.501 248.411 233.513 247.66 242.814C246.909 252.115 245.205 261.271 242.548 270.283C239.89 279.295 236.28 287.47 231.716 294.807C227.152 302.143 221.693 308.209 215.338 313.004C208.983 317.799 201.704 320.601 193.501 321.41C187.031 321.756 181.485 320.457 176.863 317.51C172.241 314.564 168.458 310.867 165.511 306.418C162.565 301.97 160.37 297.233 158.925 292.207C157.481 287.181 156.759 282.819 156.759 279.122ZM193.501 195.24C191.537 196.858 189.341 199.688 186.915 203.732C184.489 207.776 182.12 212.6 179.809 218.204C177.499 223.807 175.39 229.902 173.484 236.488C171.577 243.074 170.075 249.717 168.977 256.418C167.88 263.12 167.36 269.648 167.418 276.003C167.475 282.357 168.371 288.105 170.104 293.247C171.837 298.388 174.495 302.663 178.076 306.072C181.658 309.48 186.453 311.589 192.461 312.398C197.083 312.975 201.733 311.473 206.412 307.892C211.092 304.31 215.396 299.457 219.324 293.334C223.252 287.21 226.69 280.249 229.636 272.45C232.582 264.651 234.749 256.881 236.135 249.139C237.291 242.207 237.868 235.419 237.868 228.776C237.868 222.132 237.233 216.037 235.962 210.491C234.691 204.945 232.842 200.15 230.416 196.107C227.99 192.063 224.986 189.174 221.404 187.441C217.822 185.708 213.691 185.39 209.012 186.488C204.333 187.585 199.162 190.503 193.501 195.24Z" fill="#1D1A0F"/>
<path d="M255.893 177.216C257.163 175.367 258.694 174.818 260.485 175.569C262.276 176.32 263.951 177.476 265.511 179.035C267.071 180.595 268.313 182.155 269.237 183.715C270.162 185.275 270.393 185.997 269.931 185.881L333.536 294.547C333.882 292.814 334.2 290.012 334.489 286.141C334.778 282.271 334.98 277.707 335.095 272.45C335.211 267.193 335.24 261.444 335.182 255.205C335.124 248.966 335.009 242.727 334.835 236.488C334.662 230.249 334.402 224.125 334.055 218.117C333.709 212.109 333.304 206.707 332.842 201.912C332.38 197.117 331.86 193.131 331.283 189.954C330.705 186.777 330.012 184.841 329.203 184.148C329.203 182.299 329.549 180.537 330.243 178.862C330.936 177.187 332.322 176.349 334.402 176.349C336.366 176.349 337.984 177.505 339.255 179.815C340.526 182.126 341.508 184.726 342.201 187.614C342.894 190.503 343.385 193.334 343.674 196.107C343.963 198.879 344.107 200.67 344.107 201.479C344.223 203.79 344.31 207.458 344.367 212.484C344.425 217.51 344.483 223.258 344.541 229.729C344.599 236.199 344.656 242.987 344.714 250.093C344.772 257.198 344.83 263.986 344.887 270.457C344.945 276.927 344.974 282.704 344.974 287.788C344.974 292.871 345.032 296.569 345.147 298.879C345.263 302.115 345.696 304.945 346.447 307.372C347.198 309.798 347.574 312.571 347.574 315.691C347.574 318.232 346.62 320.139 344.714 321.41C342.808 322.681 340.699 323.316 338.388 323.316C337.117 323.316 335.991 323.143 335.009 322.796C334.027 322.45 333.247 321.872 332.669 321.063C332.091 320.254 331.774 319.186 331.716 317.857C331.658 316.528 331.918 314.882 332.496 312.918C330.416 310.491 327.759 306.418 324.523 300.699C321.288 294.98 317.735 288.51 313.865 281.288C309.994 274.067 305.95 266.47 301.733 258.498C297.516 250.526 293.472 242.987 289.601 235.881C285.731 228.776 282.12 222.565 278.77 217.25C275.419 211.936 272.704 208.296 270.624 206.332C270.046 213.842 269.873 222.536 270.104 232.415C270.335 242.294 270.739 252.403 271.317 262.744C271.895 273.085 272.501 283.166 273.137 292.987C273.772 302.808 274.09 311.473 274.09 318.983C274.09 321.41 273.397 322.941 272.01 323.576C270.624 324.212 269.18 324.356 267.678 324.009C266.176 323.663 264.905 323.056 263.865 322.19C262.825 321.323 262.652 320.659 263.345 320.197L255.893 177.216Z" fill="#1D1A0F"/>
<path d="M434.749 271.67C433.478 276.407 431.918 281.722 430.069 287.614C428.221 293.507 425.852 299.053 422.964 304.252C420.075 309.451 416.58 313.842 412.478 317.424C408.377 321.005 403.437 322.796 397.66 322.796C391.652 321.294 386.482 318.348 382.149 313.957C377.816 309.567 374.148 304.252 371.144 298.013C368.14 291.774 365.713 284.87 363.865 277.302C362.016 269.735 360.601 261.993 359.619 254.079C358.637 246.164 358.001 238.365 357.712 230.682C357.423 222.999 357.308 215.922 357.366 209.451C357.423 202.981 357.597 197.406 357.886 192.727C358.174 188.048 358.434 184.726 358.666 182.762C358.319 180.913 358.723 179.527 359.879 178.602C361.034 177.678 362.363 177.158 363.865 177.042C365.367 176.927 366.782 177.158 368.111 177.736C369.44 178.313 370.162 179.064 370.277 179.989C367.967 196.973 366.782 211.936 366.724 224.876C366.667 237.817 367.331 249.111 368.718 258.758C370.104 268.406 372.097 276.522 374.697 283.108C377.296 289.694 380.069 295.096 383.016 299.313C385.962 303.53 388.995 306.707 392.114 308.845C395.234 310.982 398.007 312.398 400.433 313.091C404.362 312.744 407.857 310.693 410.919 306.938C413.98 303.183 416.667 298.331 418.977 292.38C421.288 286.43 423.281 279.7 424.957 272.19C426.632 264.68 428.047 256.938 429.203 248.966C430.358 240.994 431.283 233.108 431.976 225.309C432.669 217.51 433.189 210.434 433.536 204.079C433.882 197.724 434.084 192.323 434.142 187.874C434.2 183.426 434.171 180.566 434.055 179.295C434.864 177.909 435.817 176.985 436.915 176.522C438.013 176.06 439.053 175.887 440.035 176.003C441.017 176.118 441.912 176.494 442.721 177.129C443.53 177.765 444.107 178.487 444.454 179.295C444.57 182.299 444.31 187.874 443.674 196.02C443.039 204.165 442.634 214.391 442.461 226.696C442.288 239.001 442.663 253.155 443.588 269.157C444.512 285.159 446.649 302.404 450 320.89C450 322.045 449.624 322.912 448.873 323.49C448.122 324.067 447.227 324.443 446.187 324.616C445.147 324.789 444.05 324.847 442.894 324.789C441.739 324.732 440.757 324.645 439.948 324.529L434.749 271.67Z" fill="#1D1A0F"/>
</svg>
